<?xml version="1.0" standalone="no"?>
<!DOCTYPE svg PUBLIC "-//W3C//DTD SVG 20010904//EN"
 "http://www.w3.org/TR/2001/REC-SVG-20010904/DTD/svg10.dtd">
<svg version="1.0" xmlns="http://www.w3.org/2000/svg"
 width="300.000000pt" height="176.000000pt" viewBox="0 0 300.000000 176.000000"
 preserveAspectRatio="xMidYMid meet">
<metadata>
Created by potrace 1.10, written by Peter Selinger 2001-2011
</metadata>
<g transform="translate(0.000000,176.000000) scale(0.100000,-0.100000)"
fill="#FFFFFF" stroke="none">
<path d="M660 1425 c0 -30 3 -35 23 -35 13 0 28 5 34 11 7 7 51 10 127 8 l116
-4 0 27 0 28 -150 0 -150 0 0 -35z"/>
<path d="M1080 1228 c44 -127 80 -233 80 -235 0 -1 12 -3 28 -3 25 1 29 7 58
95 l31 95 -28 0 c-24 0 -29 -6 -45 -52 l-17 -52 -58 180 c-32 98 -59 185 -59
192 0 7 -14 12 -35 12 l-34 0 79 -232z"/>
<path d="M1440 1425 c0 -30 3 -35 23 -35 13 0 28 5 34 11 7 7 51 10 127 8
l116 -4 0 27 0 28 -150 0 -150 0 0 -35z"/>
<path d="M1835 1225 l0 -235 28 0 27 0 0 183 c1 146 3 179 13 165 7 -10 59
-92 117 -183 94 -147 108 -165 133 -165 27 0 27 1 27 65 l0 65 -27 -6 c-16 -4
-30 -8 -32 -10 -2 -2 -55 78 -118 176 -102 159 -118 180 -142 180 l-26 0 0
-235z"/>
<path d="M2260 1432 l0 -29 68 1 67 1 -3 -37 c-3 -36 -2 -38 27 -38 30 0 31 2
31 41 l0 42 70 -5 70 -5 0 28 0 29 -165 0 -165 0 0 -28z"/>
<path d="M660 1120 l0 -130 150 0 150 0 0 25 0 25 -125 0 -125 0 0 81 0 80
107 -2 106 -2 2 27 1 26 -133 0 -133 0 0 -130z"/>
<path d="M1440 1120 l0 -130 150 0 150 0 0 25 0 25 -120 0 -120 0 0 81 0 80
103 -2 102 -2 3 27 3 26 -135 0 -136 0 0 -130z"/>
<path d="M2397 1113 c-4 -3 -7 -33 -7 -65 0 -58 0 -58 30 -58 l30 0 0 65 c0
61 -1 65 -23 65 -13 0 -27 -3 -30 -7z"/>
<path d="M1640 543 l0 -213 26 0 25 0 -3 90 -3 90 55 0 56 0 44 -90 c40 -81
47 -90 72 -90 15 0 28 2 28 5 0 3 -21 44 -46 91 l-46 85 38 34 39 33 -35 0
c-19 0 -40 -4 -45 -9 -6 -4 -43 -9 -84 -10 l-73 -2 0 74 0 74 62 1 c48 1 65 5
72 18 6 10 8 20 5 22 -2 3 -46 6 -96 7 l-91 2 0 -212z"/>
<path d="M2051 562 c-95 -257 -89 -234 -55 -230 24 3 30 10 43 51 l15 47 84 0
c73 0 83 2 78 16 -3 9 -6 20 -6 26 0 6 -26 9 -70 6 -38 -2 -70 -4 -70 -3 0 0
18 48 39 107 35 99 43 159 22 173 -4 2 -40 -85 -80 -193z"/>
<path d="M952 602 c-30 -81 -64 -175 -77 -209 l-24 -63 29 0 c25 0 30 5 45 50
l17 50 85 0 c74 0 84 2 79 16 -3 9 -6 20 -6 26 0 6 -28 8 -70 6 -39 -2 -70 0
-70 3 0 4 16 51 36 105 26 72 34 108 29 131 -3 18 -9 33 -13 33 -4 0 -31 -67
-60 -148z"/>
<path d="M1250 583 c3 -112 9 -176 18 -191 22 -38 71 -62 127 -62 88 0 145 54
145 140 0 36 -2 40 -25 40 -23 0 -25 -4 -25 -40 0 -58 -34 -90 -95 -90 -35 0
-52 6 -70 25 -24 24 -25 28 -25 185 l0 160 -27 0 -28 0 5 -167z"/>
</g>
</svg>
